<?xml version="1.0" ?><svg enable-background="new 0 0 64 64" version="1.1" viewBox="0 0 64 64" xml:space="preserve" xmlns="http://www.w3.org/2000/svg" xmlns:xlink="http://www.w3.org/1999/xlink"><g id="row_4"><g id="calculator"><path d="M50,62H14c-2.8,0-5-2.2-5-5V7c0-2.8,2.2-5,5-5h36c2.8,0,5,2.2,5,5v50C55,59.8,52.8,62,50,62z" fill="#B0BEC5"/><path d="M14,4c-1.7,0-3,1.3-3,3v12c0,1.7,1.3,3,3,3h36c1.7,0,3-1.3,3-3V7c0-1.7-1.3-3-3-3H14z" fill="#212121"/><rect fill="#C0CA33" height="10" width="34" x="15" y="8"/><path d="M29,56H17c-0.6,0-1-0.4-1-1V43c0-0.6,0.4-1,1-1h12c0.6,0,1,0.4,1,1v12C30,55.6,29.6,56,29,56z" fill="#9575CD"/><path d="M47,56H35c-0.6,0-1-0.4-1-1V43c0-0.6,0.4-1,1-1h12c0.6,0,1,0.4,1,1v12C48,55.6,47.6,56,47,56z" fill="#546E7A"/><path d="M29,38H17c-0.6,0-1-0.4-1-1V25c0-0.6,0.4-1,1-1h12c0.6,0,1,0.4,1,1v12C30,37.6,29.6,38,29,38z" fill="#263238"/><path d="M47,38H35c-0.6,0-1-0.4-1-1V25c0-0.6,0.4-1,1-1h12c0.6,0,1,0.4,1,1v12C48,37.6,47.6,38,47,38z" fill="#263238"/><g><g><g><path d="M19.5,45c1,0,1.5,0.5,1.5,1.5c0,1-0.5,1.5-1.5,1.5c-1,0-1.5-0.5-1.5-1.5C18,45.5,18.5,45,19.5,45        M19.5,44C18,44,17,44.8,17,46.5c0,1.7,1,2.5,2.5,2.5c1.5,0,2.5-0.8,2.5-2.5C22,44.8,21,44,19.5,44L19.5,44z" fill="#FFFFFF"/></g></g><g><g><path d="M26.5,50c1,0,1.5,0.5,1.5,1.5c0,1-0.5,1.5-1.5,1.5c-1,0-1.5-0.5-1.5-1.5C25,50.5,25.5,50,26.5,50        M26.5,49C25,49,24,49.8,24,51.5c0,1.7,1,2.5,2.5,2.5c1.5,0,2.5-0.8,2.5-2.5C29,49.8,28,49,26.5,49L26.5,49z" fill="#FFFFFF"/></g></g><line fill="none" stroke="#FFFFFF" stroke-miterlimit="10" x1="20.5" x2="25.5" y1="53.8" y2="44.2"/></g><g><line fill="none" stroke="#FFFFFF" stroke-miterlimit="10" stroke-width="2" x1="37.5" x2="44.5" y1="48" y2="48"/><line fill="none" stroke="#FFFFFF" stroke-miterlimit="10" stroke-width="2" x1="37.5" x2="44.5" y1="51" y2="51"/></g><g><line fill="none" stroke="#FFFFFF" stroke-miterlimit="10" stroke-width="2" x1="19.5" x2="26.5" y1="31" y2="31"/><line fill="none" stroke="#FFFFFF" stroke-miterlimit="10" stroke-width="2" x1="23" x2="23" y1="27.5" y2="34.5"/></g><line fill="none" stroke="#FFFFFF" stroke-miterlimit="10" stroke-width="2" x1="37" x2="45" y1="31" y2="31"/></g></g><g id="row_3"/><g id="row_2"/><g id="row_1"/></svg>