<?xml version="1.0" ?><!DOCTYPE svg  PUBLIC '-//W3C//DTD SVG 1.1//EN'  'http://www.w3.org/Graphics/SVG/1.1/DTD/svg11.dtd'><svg enable-background="new 0 0 200 200" height="200px" id="Layer_1" version="1.1" viewBox="0 0 200 200" width="200px" xml:space="preserve" xmlns="http://www.w3.org/2000/svg" xmlns:xlink="http://www.w3.org/1999/xlink"><g><path d="M97.726,67.643c-1.472,0.808-2.475,2.375-2.475,4.167V85.61c0,1.791,1.003,3.358,2.475,4.166   c0.066,0.032,0.133,0.059,0.195,0.091v-0.091c0.62,0.367,1.333,0.58,2.079,0.58c0.749,0,1.459-0.213,2.077-0.58v0.091   c0.064-0.032,0.133-0.059,0.195-0.091c1.472-0.808,2.475-2.375,2.475-4.166V71.811c0-1.793-1.003-3.36-2.475-4.167   c-0.063-0.032-0.131-0.059-0.195-0.091v0.091c-0.618-0.365-1.329-0.582-2.077-0.582c-0.747,0-1.459,0.217-2.079,0.582v-0.091   C97.858,67.584,97.792,67.611,97.726,67.643z" fill="#5E889E"/><path d="M49.554,93.174v9.329c14.352,8.099,30.833,12.84,48.367,13.188v-11.489   c-0.063-0.019-0.129-0.029-0.195-0.047c-3.804-1.01-6.627-4.494-6.627-8.605V71.811c0-4.114,2.824-7.597,6.627-8.605   c0.066-0.018,0.133-0.03,0.195-0.046V51.632h-6.823C68.251,51.632,49.554,70.328,49.554,93.174z" fill="#5E889E"/><path d="M108.905,51.632h-6.828v11.527c0.064,0.016,0.133,0.028,0.195,0.046c3.808,1.008,6.633,4.491,6.633,8.605   v23.738c0,4.112-2.825,7.596-6.633,8.605c-0.063,0.018-0.131,0.028-0.195,0.047v11.489c17.537-0.348,34.02-5.089,48.369-13.188   v-9.329C150.446,70.328,131.75,51.632,108.905,51.632z" fill="#5E889E"/><path d="M49.554,107.238v51.216c0,22.851,18.698,41.546,41.544,41.546h17.807c22.845,0,41.541-18.695,41.541-41.546   v-51.216c-15.039,8.065-32.222,12.643-50.446,12.643S64.593,115.304,49.554,107.238z" fill="#5E889E"/><path d="M103.499,33.339c0.945-2.226,2.305-4.205,4.038-5.882l0.305-0.292c2.14-2.07,3.813-4.507,4.977-7.247   c1.162-2.74,1.748-5.641,1.748-8.616V0h-4.151v11.302c0,2.414-0.479,4.767-1.422,6.993c-0.943,2.224-2.303,4.203-4.036,5.883   l-0.305,0.292c-2.142,2.068-3.816,4.507-4.977,7.249c-1.162,2.74-1.755,5.638-1.755,8.614v11.3h4.156v-11.3   C102.077,37.917,102.558,35.563,103.499,33.339z" fill="#5E889E"/></g></svg>